<svg width="88" height="34" viewBox="0 0 88 34" fill="none" xmlns="http://www.w3.org/2000/svg">
<path d="M24.4223 6.84006C22.957 6.84006 21.7678 5.65081 21.7678 4.18548V27.4537H11.1495L11.2291 32.4691H27.0769V4.18548C27.0769 5.65081 25.8876 6.84006 24.4223 6.84006Z" fill="url(#paint0_linear_1_12)"/>
<path d="M24.4221 1C22.6665 1 21.2366 2.42993 21.2366 4.18549V26.4344L16.9893 23.4612V9.49464C16.9893 7.73908 15.5593 6.30915 13.8038 6.30915C12.0482 6.30915 10.6183 7.73908 10.6183 9.49464V23.7373V24.2682V27.4537C10.6183 27.7475 10.8554 27.9846 11.1492 27.9846H21.7675C22.0613 27.9846 22.2984 27.7475 22.2984 27.4537V6.55337C22.863 7.05951 23.6062 7.37098 24.4221 7.37098C25.2379 7.37098 25.9812 7.05951 26.5457 6.55337V31.9382H6.37098V4.18549C6.37098 2.42993 4.94105 1 3.18549 1C1.42993 1 0 2.42993 0 4.18549V27.1599C0 27.3015 0.0566309 27.436 0.155735 27.5351L5.46488 32.8443C5.56399 32.9434 5.70025 33 5.84006 33H27.0766C27.3704 33 27.6076 32.7629 27.6076 32.4691V4.18549C27.6076 2.42993 26.1776 1 24.4221 1ZM13.8038 7.37098C14.9753 7.37098 15.9274 8.32308 15.9274 9.49464C15.9274 10.6662 14.9753 11.6183 13.8038 11.6183C12.6322 11.6183 11.6801 10.6662 11.6801 9.49464C11.6801 8.32308 12.6322 7.37098 13.8038 7.37098ZM11.6801 26.9228V24.2682H16.2902L20.0827 26.9228H11.6801ZM3.18549 2.06183C4.35704 2.06183 5.30915 3.01394 5.30915 4.18549C5.30915 5.35704 4.35704 6.30915 3.18549 6.30915C2.01394 6.30915 1.06183 5.35704 1.06183 4.18549C1.06183 3.01394 2.01394 2.06183 3.18549 2.06183ZM24.4221 6.30915C23.2505 6.30915 22.2984 5.35704 22.2984 4.18549C22.2984 3.01394 23.2505 2.06183 24.4221 2.06183C25.5936 2.06183 26.5457 3.01394 26.5457 4.18549C26.5457 5.35704 25.5936 6.30915 24.4221 6.30915Z" fill="#4F4F4F"/>
<path d="M54.8576 13.912C54.9696 13.624 55.1296 13.408 55.3376 13.264C55.5616 13.12 55.8016 13.048 56.0576 13.048C56.4256 13.048 56.7536 13.176 57.0416 13.432C57.3456 13.672 57.4976 13.976 57.4976 14.344C57.4976 14.552 57.4576 14.736 57.3776 14.896L53.4176 24.184C53.2896 24.488 53.0896 24.72 52.8176 24.88C52.5616 25.04 52.2736 25.12 51.9536 25.12C51.6496 25.12 51.3616 25.04 51.0896 24.88C50.8336 24.72 50.6416 24.488 50.5136 24.184L47.6576 17.32L44.8976 24.184C44.7696 24.488 44.5696 24.72 44.2976 24.88C44.0416 25.04 43.7536 25.12 43.4336 25.12C43.1296 25.12 42.8416 25.04 42.5696 24.88C42.2976 24.72 42.0976 24.488 41.9696 24.184L38.0336 14.896C37.9536 14.688 37.9136 14.512 37.9136 14.368C37.9136 14 38.0736 13.688 38.3936 13.432C38.7136 13.16 39.0656 13.024 39.4496 13.024C39.7216 13.024 39.9696 13.096 40.1936 13.24C40.4176 13.384 40.5856 13.6 40.6976 13.888L43.5296 21.208L46.4336 13.96C46.5616 13.656 46.7456 13.432 46.9856 13.288C47.2256 13.128 47.4896 13.048 47.7776 13.048C48.0656 13.048 48.3296 13.128 48.5696 13.288C48.8096 13.432 48.9936 13.656 49.1216 13.96L52.0496 21.232L54.8576 13.912ZM66.1003 13.024C66.5163 12.992 66.8443 13.08 67.0843 13.288C67.3243 13.496 67.4443 13.808 67.4443 14.224C67.4443 14.656 67.3403 14.976 67.1323 15.184C66.9243 15.392 66.5483 15.528 66.0043 15.592L65.2843 15.664C64.3403 15.76 63.6443 16.08 63.1963 16.624C62.7643 17.168 62.5483 17.848 62.5483 18.664V23.704C62.5483 24.168 62.4043 24.528 62.1163 24.784C61.8283 25.024 61.4683 25.144 61.0363 25.144C60.6043 25.144 60.2443 25.024 59.9563 24.784C59.6843 24.528 59.5483 24.168 59.5483 23.704V14.416C59.5483 13.968 59.6843 13.624 59.9563 13.384C60.2443 13.144 60.5963 13.024 61.0123 13.024C61.4283 13.024 61.7643 13.144 62.0203 13.384C62.2763 13.608 62.4043 13.936 62.4043 14.368V15.328C62.7083 14.624 63.1563 14.08 63.7483 13.696C64.3563 13.312 65.0283 13.096 65.7643 13.048L66.1003 13.024ZM78.4374 13.024C78.8854 13.024 79.2454 13.152 79.5174 13.408C79.7894 13.664 79.9254 14.008 79.9254 14.44V23.92C79.9254 25.76 79.4134 27.152 78.3894 28.096C77.3654 29.04 75.8534 29.512 73.8534 29.512C72.1094 29.512 70.6534 29.184 69.4854 28.528C68.8934 28.176 68.5974 27.752 68.5974 27.256C68.5974 26.904 68.6774 26.624 68.8374 26.416C69.0134 26.208 69.2374 26.104 69.5094 26.104C69.6534 26.104 69.8294 26.136 70.0374 26.2C70.2454 26.28 70.4614 26.368 70.6854 26.464C71.2614 26.704 71.7734 26.888 72.2214 27.016C72.6854 27.144 73.2134 27.208 73.8054 27.208C75.9014 27.208 76.9494 26.184 76.9494 24.136V22.6C76.5974 23.256 76.0854 23.768 75.4134 24.136C74.7414 24.488 73.9734 24.664 73.1094 24.664C72.0854 24.664 71.1734 24.424 70.3734 23.944C69.5894 23.448 68.9734 22.76 68.5254 21.88C68.0774 21 67.8534 19.984 67.8534 18.832C67.8534 17.68 68.0694 16.664 68.5014 15.784C68.9494 14.888 69.5734 14.2 70.3734 13.72C71.1734 13.224 72.0854 12.976 73.1094 12.976C73.9734 12.976 74.7414 13.16 75.4134 13.528C76.0854 13.88 76.5974 14.384 76.9494 15.04V14.416C76.9494 14 77.0854 13.664 77.3574 13.408C77.6294 13.152 77.9894 13.024 78.4374 13.024ZM73.9014 22.336C74.8614 22.336 75.6054 22.024 76.1334 21.4C76.6774 20.776 76.9494 19.92 76.9494 18.832C76.9494 17.728 76.6774 16.864 76.1334 16.24C75.6054 15.616 74.8614 15.304 73.9014 15.304C72.9574 15.304 72.2134 15.616 71.6694 16.24C71.1254 16.864 70.8534 17.728 70.8534 18.832C70.8534 19.92 71.1254 20.776 71.6694 21.4C72.2134 22.024 72.9574 22.336 73.9014 22.336ZM84.5207 25.144C84.0887 25.144 83.7287 25.024 83.4407 24.784C83.1687 24.528 83.0327 24.168 83.0327 23.704V9.376C83.0327 8.912 83.1687 8.56 83.4407 8.32C83.7287 8.08 84.0887 7.96 84.5207 7.96C84.9527 7.96 85.3127 8.08 85.6007 8.32C85.8887 8.56 86.0327 8.912 86.0327 9.376V23.704C86.0327 24.168 85.8887 24.528 85.6007 24.784C85.3127 25.024 84.9527 25.144 84.5207 25.144Z" fill="#4F4F4F"/>
<defs>
<linearGradient id="paint0_linear_1_12" x1="19.1132" y1="32.4686" x2="19.1132" y2="4.18539" gradientUnits="userSpaceOnUse">
<stop offset="0.1484" stop-color="#4F4F4F" stop-opacity="0"/>
<stop offset="1" stop-color="#4F4F4F"/>
</linearGradient>
</defs>
</svg>
